<svg xmlns="http://www.w3.org/2000/svg" xmlns:xlink="http://www.w3.org/1999/xlink" width="500" zoomAndPan="magnify" viewBox="0 0 375 374.999991" height="500" preserveAspectRatio="xMidYMid meet" version="1.0"><defs><g/><clipPath id="511d3c468c"><path d="M 123.40625 207.371094 L 225.09375 207.371094 L 225.09375 230.585938 L 123.40625 230.585938 Z M 123.40625 207.371094 " clip-rule="nonzero"/></clipPath></defs><g fill="#000000" fill-opacity="1"><g transform="translate(91.247796, 212.775384)"><g><path d="M 34.609375 -7.34375 L 18.40625 -7.34375 L 16 0 L 0 0 L 17.78125 -48.609375 L 35.359375 -48.609375 L 53.078125 0 L 37 0 Z M 30.890625 -18.8125 L 26.5 -32.34375 L 22.109375 -18.8125 Z M 30.890625 -18.8125 "/></g></g></g><g fill="#000000" fill-opacity="1"><g transform="translate(138.609694, 212.775384)"><g><path d="M 35.421875 7.890625 L 30.765625 0.203125 C 29.703125 0.390625 28.488281 0.484375 27.125 0.484375 C 22.539062 0.484375 18.335938 -0.585938 14.515625 -2.734375 C 10.691406 -4.890625 7.660156 -7.867188 5.421875 -11.671875 C 3.179688 -15.472656 2.0625 -19.753906 2.0625 -24.515625 C 2.0625 -29.273438 3.179688 -33.550781 5.421875 -37.34375 C 7.660156 -41.144531 10.691406 -44.109375 14.515625 -46.234375 C 18.335938 -48.367188 22.539062 -49.4375 27.125 -49.4375 C 31.695312 -49.4375 35.878906 -48.367188 39.671875 -46.234375 C 43.472656 -44.109375 46.484375 -41.144531 48.703125 -37.34375 C 50.929688 -33.550781 52.046875 -29.273438 52.046875 -24.515625 C 52.046875 -20.617188 51.289062 -17.035156 49.78125 -13.765625 C 48.269531 -10.492188 46.1875 -7.710938 43.53125 -5.421875 L 53.421875 7.890625 Z M 17.578125 -24.515625 C 17.578125 -21.210938 18.398438 -18.585938 20.046875 -16.640625 C 21.691406 -14.703125 24.050781 -13.734375 27.125 -13.734375 C 30.144531 -13.734375 32.476562 -14.703125 34.125 -16.640625 C 35.769531 -18.585938 36.59375 -21.210938 36.59375 -24.515625 C 36.59375 -27.847656 35.769531 -30.488281 34.125 -32.4375 C 32.476562 -34.382812 30.144531 -35.359375 27.125 -35.359375 C 24.050781 -35.359375 21.691406 -34.382812 20.046875 -32.4375 C 18.398438 -30.488281 17.578125 -27.847656 17.578125 -24.515625 Z M 17.578125 -24.515625 "/></g></g></g><g fill="#000000" fill-opacity="1"><g transform="translate(187.001228, 212.775384)"><g><path d="M 18.328125 -48.609375 L 18.328125 -21.21875 C 18.328125 -18.96875 18.816406 -17.191406 19.796875 -15.890625 C 20.785156 -14.585938 22.378906 -13.9375 24.578125 -13.9375 C 26.773438 -13.9375 28.398438 -14.585938 29.453125 -15.890625 C 30.503906 -17.191406 31.03125 -18.96875 31.03125 -21.21875 L 31.03125 -48.609375 L 46.203125 -48.609375 L 46.203125 -21.21875 C 46.203125 -16.59375 45.238281 -12.644531 43.3125 -9.375 C 41.394531 -6.101562 38.765625 -3.640625 35.421875 -1.984375 C 32.085938 -0.335938 28.359375 0.484375 24.234375 0.484375 C 20.117188 0.484375 16.46875 -0.335938 13.28125 -1.984375 C 10.101562 -3.640625 7.617188 -6.09375 5.828125 -9.34375 C 4.046875 -12.59375 3.15625 -16.550781 3.15625 -21.21875 L 3.15625 -48.609375 Z M 18.328125 -48.609375 "/></g></g></g><g fill="#000000" fill-opacity="1"><g transform="translate(230.656403, 212.775384)"><g><path d="M 34.609375 -7.34375 L 18.40625 -7.34375 L 16 0 L 0 0 L 17.78125 -48.609375 L 35.359375 -48.609375 L 53.078125 0 L 37 0 Z M 30.890625 -18.8125 L 26.5 -32.34375 L 22.109375 -18.8125 Z M 30.890625 -18.8125 "/></g></g></g><path fill="#29abe2" d="M 69.644531 178.738281 C 68.527344 189.53125 71.984375 202.113281 83.125 208.203125 C 92.078125 213.097656 102.515625 213.828125 112.5 213.199219 C 123.496094 212.503906 134.3125 210.175781 144.90625 207.230469 C 152.679688 205.070312 160.34375 202.535156 168.042969 200.152344 C 178.957031 196.777344 190.523438 194.339844 201.757812 196.386719 C 210.210938 197.929688 218.171875 202.054688 224.34375 208.042969 C 216.324219 203.746094 207.035156 202.1875 198.019531 202.621094 C 194.050781 202.8125 190.132812 203.613281 186.28125 204.59375 C 164.324219 210.210938 143.921875 221.972656 121.390625 224.40625 C 114.304688 225.171875 106.992188 225.441406 99.902344 224.550781 C 88.363281 223.109375 78.753906 217.503906 72.828125 207.328125 C 67.84375 198.761719 66.109375 188 69.644531 178.738281 " fill-opacity="1" fill-rule="nonzero"/><g clip-path="url(#511d3c468c)"><path fill="#0071bc" d="M 164.253906 219.101562 C 174.53125 214.890625 184.332031 209.777344 195.308594 208.097656 C 205.570312 206.527344 216.769531 207.882812 225.09375 213.960938 C 216.5 210.675781 207.867188 210.546875 199.292969 212.246094 C 188.910156 214.304688 178.285156 219.121094 168.320312 222.695312 C 161.53125 225.132812 155.195312 227.566406 148.105469 228.894531 C 140.058594 230.402344 131.785156 231.105469 123.65625 230.152344 C 138.707031 229.488281 151.328125 224.394531 164.253906 219.101562 " fill-opacity="1" fill-rule="nonzero"/></g><path fill="#0071bc" d="M 81.371094 176.855469 C 82.589844 174.890625 84.242188 173.246094 86.355469 172.15625 C 89.554688 170.511719 93.667969 169.929688 97.058594 171.324219 C 96.074219 170.917969 94.09375 171.28125 93.046875 171.382812 C 89.238281 171.765625 86.140625 174.257812 84.433594 177.648438 C 81.761719 182.960938 83.15625 190.4375 86.691406 195.035156 C 87.769531 196.4375 89.800781 197.839844 91.300781 198.773438 C 100.714844 204.628906 112.445312 203.519531 122.855469 201.542969 C 125.828125 200.980469 129.488281 200.597656 132.4375 199.914062 C 141.03125 197.917969 148.925781 195.6875 157.492188 193.582031 C 157.492188 193.582031 154.410156 194.738281 153.761719 194.984375 C 152.464844 195.46875 151.167969 195.957031 149.867188 196.445312 C 139.5 200.339844 129.066406 204.199219 118.128906 206.152344 C 109.640625 207.667969 100.773438 208.484375 92.539062 205.347656 C 87.058594 203.257812 82.140625 199.332031 80.007812 193.859375 C 77.996094 188.710938 78.3125 181.78125 81.371094 176.855469 " fill-opacity="1" fill-rule="nonzero"/><path fill="#29abe2" d="M 96.902344 193.980469 C 91.953125 189.757812 91.121094 182.59375 95.042969 177.980469 C 96.414062 176.363281 98.1875 175.277344 100.125 174.726562 C 97.300781 175.011719 94.636719 176.296875 92.714844 178.558594 C 88.5625 183.449219 89.441406 191.039062 94.683594 195.511719 C 99.925781 199.984375 107.542969 199.648438 111.699219 194.761719 C 111.914062 194.507812 112.117188 194.246094 112.304688 193.976562 C 108.277344 197.90625 101.585938 197.976562 96.902344 193.980469 " fill-opacity="1" fill-rule="nonzero"/><g fill="#000000" fill-opacity="1"><g transform="translate(108.14183, 241.01887)"><g><path d="M 6.625 -6.015625 C 6.625 -5.304688 6.378906 -4.71875 5.890625 -4.25 C 5.410156 -3.78125 4.675781 -3.546875 3.6875 -3.546875 L 2.046875 -3.546875 L 2.046875 0 L 0.9375 0 L 0.9375 -8.5 L 3.6875 -8.5 C 4.644531 -8.5 5.375 -8.265625 5.875 -7.796875 C 6.375 -7.335938 6.625 -6.742188 6.625 -6.015625 Z M 3.6875 -4.46875 C 4.300781 -4.46875 4.753906 -4.597656 5.046875 -4.859375 C 5.335938 -5.128906 5.484375 -5.515625 5.484375 -6.015625 C 5.484375 -7.066406 4.882812 -7.59375 3.6875 -7.59375 L 2.046875 -7.59375 L 2.046875 -4.46875 Z M 3.6875 -4.46875 "/></g></g></g><g fill="#000000" fill-opacity="1"><g transform="translate(124.961891, 241.01887)"><g><path d="M 2.03125 -8.5 L 2.03125 -3.125 C 2.03125 -2.363281 2.210938 -1.800781 2.578125 -1.4375 C 2.953125 -1.070312 3.46875 -0.890625 4.125 -0.890625 C 4.769531 -0.890625 5.28125 -1.070312 5.65625 -1.4375 C 6.03125 -1.800781 6.21875 -2.363281 6.21875 -3.125 L 6.21875 -8.5 L 7.328125 -8.5 L 7.328125 -3.140625 C 7.328125 -2.429688 7.179688 -1.832031 6.890625 -1.34375 C 6.609375 -0.863281 6.222656 -0.503906 5.734375 -0.265625 C 5.253906 -0.0351562 4.710938 0.078125 4.109375 0.078125 C 3.503906 0.078125 2.957031 -0.0351562 2.46875 -0.265625 C 1.988281 -0.503906 1.609375 -0.863281 1.328125 -1.34375 C 1.054688 -1.832031 0.921875 -2.429688 0.921875 -3.140625 L 0.921875 -8.5 Z M 2.03125 -8.5 "/></g></g></g><g fill="#000000" fill-opacity="1"><g transform="translate(142.952372, 241.01887)"><g><path d="M 5.421875 0 L 3.390625 -3.484375 L 2.046875 -3.484375 L 2.046875 0 L 0.9375 0 L 0.9375 -8.5 L 3.6875 -8.5 C 4.332031 -8.5 4.875 -8.390625 5.3125 -8.171875 C 5.757812 -7.953125 6.09375 -7.65625 6.3125 -7.28125 C 6.53125 -6.90625 6.640625 -6.476562 6.640625 -6 C 6.640625 -5.414062 6.46875 -4.898438 6.125 -4.453125 C 5.789062 -4.003906 5.285156 -3.707031 4.609375 -3.5625 L 6.75 0 Z M 2.046875 -4.375 L 3.6875 -4.375 C 4.289062 -4.375 4.738281 -4.519531 5.03125 -4.8125 C 5.332031 -5.113281 5.484375 -5.507812 5.484375 -6 C 5.484375 -6.507812 5.332031 -6.898438 5.03125 -7.171875 C 4.738281 -7.453125 4.289062 -7.59375 3.6875 -7.59375 L 2.046875 -7.59375 Z M 2.046875 -4.375 "/></g></g></g><g fill="#000000" fill-opacity="1"><g transform="translate(160.125995, 241.01887)"><g><path d="M 2.046875 -7.609375 L 2.046875 -4.765625 L 5.15625 -4.765625 L 5.15625 -3.84375 L 2.046875 -3.84375 L 2.046875 -0.921875 L 5.515625 -0.921875 L 5.515625 0 L 0.9375 0 L 0.9375 -8.515625 L 5.515625 -8.515625 L 5.515625 -7.609375 Z M 2.046875 -7.609375 "/></g></g></g><g fill="#000000" fill-opacity="1"><g transform="translate(176.141385, 241.01887)"><g/></g></g><g fill="#000000" fill-opacity="1"><g transform="translate(189.157576, 241.01887)"><g><path d="M 6.625 -6.015625 C 6.625 -5.304688 6.378906 -4.71875 5.890625 -4.25 C 5.410156 -3.78125 4.675781 -3.546875 3.6875 -3.546875 L 2.046875 -3.546875 L 2.046875 0 L 0.9375 0 L 0.9375 -8.5 L 3.6875 -8.5 C 4.644531 -8.5 5.375 -8.265625 5.875 -7.796875 C 6.375 -7.335938 6.625 -6.742188 6.625 -6.015625 Z M 3.6875 -4.46875 C 4.300781 -4.46875 4.753906 -4.597656 5.046875 -4.859375 C 5.335938 -5.128906 5.484375 -5.515625 5.484375 -6.015625 C 5.484375 -7.066406 4.882812 -7.59375 3.6875 -7.59375 L 2.046875 -7.59375 L 2.046875 -4.46875 Z M 3.6875 -4.46875 "/></g></g></g><g fill="#000000" fill-opacity="1"><g transform="translate(205.977641, 241.01887)"><g><path d="M 4.796875 0.078125 C 4.003906 0.078125 3.28125 -0.101562 2.625 -0.46875 C 1.976562 -0.84375 1.46875 -1.359375 1.09375 -2.015625 C 0.71875 -2.679688 0.53125 -3.429688 0.53125 -4.265625 C 0.53125 -5.085938 0.71875 -5.832031 1.09375 -6.5 C 1.46875 -7.164062 1.976562 -7.679688 2.625 -8.046875 C 3.28125 -8.421875 4.003906 -8.609375 4.796875 -8.609375 C 5.585938 -8.609375 6.304688 -8.421875 6.953125 -8.046875 C 7.609375 -7.679688 8.125 -7.164062 8.5 -6.5 C 8.875 -5.84375 9.0625 -5.097656 9.0625 -4.265625 C 9.0625 -3.421875 8.875 -2.671875 8.5 -2.015625 C 8.125 -1.359375 7.609375 -0.84375 6.953125 -0.46875 C 6.304688 -0.101562 5.585938 0.078125 4.796875 0.078125 Z M 4.796875 -0.875 C 5.390625 -0.875 5.921875 -1.007812 6.390625 -1.28125 C 6.867188 -1.5625 7.242188 -1.957031 7.515625 -2.46875 C 7.796875 -2.988281 7.9375 -3.585938 7.9375 -4.265625 C 7.9375 -4.941406 7.796875 -5.535156 7.515625 -6.046875 C 7.242188 -6.554688 6.875 -6.945312 6.40625 -7.21875 C 5.9375 -7.5 5.398438 -7.640625 4.796875 -7.640625 C 4.191406 -7.640625 3.65625 -7.5 3.1875 -7.21875 C 2.71875 -6.945312 2.34375 -6.554688 2.0625 -6.046875 C 1.789062 -5.535156 1.65625 -4.941406 1.65625 -4.265625 C 1.65625 -3.585938 1.789062 -2.988281 2.0625 -2.46875 C 2.34375 -1.957031 2.71875 -1.5625 3.1875 -1.28125 C 3.664062 -1.007812 4.203125 -0.875 4.796875 -0.875 Z M 4.796875 -0.875 "/></g></g></g><g fill="#000000" fill-opacity="1"><g transform="translate(225.321411, 241.01887)"><g><path d="M 4.796875 0.078125 C 4.003906 0.078125 3.28125 -0.101562 2.625 -0.46875 C 1.976562 -0.84375 1.46875 -1.359375 1.09375 -2.015625 C 0.71875 -2.679688 0.53125 -3.429688 0.53125 -4.265625 C 0.53125 -5.085938 0.71875 -5.832031 1.09375 -6.5 C 1.46875 -7.164062 1.976562 -7.679688 2.625 -8.046875 C 3.28125 -8.421875 4.003906 -8.609375 4.796875 -8.609375 C 5.585938 -8.609375 6.304688 -8.421875 6.953125 -8.046875 C 7.609375 -7.679688 8.125 -7.164062 8.5 -6.5 C 8.875 -5.84375 9.0625 -5.097656 9.0625 -4.265625 C 9.0625 -3.421875 8.875 -2.671875 8.5 -2.015625 C 8.125 -1.359375 7.609375 -0.84375 6.953125 -0.46875 C 6.304688 -0.101562 5.585938 0.078125 4.796875 0.078125 Z M 4.796875 -0.875 C 5.390625 -0.875 5.921875 -1.007812 6.390625 -1.28125 C 6.867188 -1.5625 7.242188 -1.957031 7.515625 -2.46875 C 7.796875 -2.988281 7.9375 -3.585938 7.9375 -4.265625 C 7.9375 -4.941406 7.796875 -5.535156 7.515625 -6.046875 C 7.242188 -6.554688 6.875 -6.945312 6.40625 -7.21875 C 5.9375 -7.5 5.398438 -7.640625 4.796875 -7.640625 C 4.191406 -7.640625 3.65625 -7.5 3.1875 -7.21875 C 2.71875 -6.945312 2.34375 -6.554688 2.0625 -6.046875 C 1.789062 -5.535156 1.65625 -4.941406 1.65625 -4.265625 C 1.65625 -3.585938 1.789062 -2.988281 2.0625 -2.46875 C 2.34375 -1.957031 2.71875 -1.5625 3.1875 -1.28125 C 3.664062 -1.007812 4.203125 -0.875 4.796875 -0.875 Z M 4.796875 -0.875 "/></g></g></g><g fill="#000000" fill-opacity="1"><g transform="translate(244.66518, 241.01887)"><g><path d="M 2.046875 -0.90625 L 5.03125 -0.90625 L 5.03125 0 L 0.9375 0 L 0.9375 -8.5 L 2.046875 -8.5 Z M 2.046875 -0.90625 "/></g></g></g><g fill="#000000" fill-opacity="1"><g transform="translate(259.693031, 241.01887)"><g><path d="M 3.640625 0.078125 C 3.078125 0.078125 2.570312 -0.0195312 2.125 -0.21875 C 1.6875 -0.414062 1.335938 -0.691406 1.078125 -1.046875 C 0.828125 -1.398438 0.703125 -1.804688 0.703125 -2.265625 L 1.875 -2.265625 C 1.914062 -1.867188 2.082031 -1.535156 2.375 -1.265625 C 2.664062 -0.992188 3.085938 -0.859375 3.640625 -0.859375 C 4.171875 -0.859375 4.585938 -0.988281 4.890625 -1.25 C 5.191406 -1.507812 5.34375 -1.847656 5.34375 -2.265625 C 5.34375 -2.597656 5.253906 -2.863281 5.078125 -3.0625 C 4.898438 -3.269531 4.675781 -3.425781 4.40625 -3.53125 C 4.132812 -3.632812 3.769531 -3.75 3.3125 -3.875 C 2.757812 -4.019531 2.3125 -4.164062 1.96875 -4.3125 C 1.632812 -4.457031 1.347656 -4.6875 1.109375 -5 C 0.867188 -5.3125 0.75 -5.734375 0.75 -6.265625 C 0.75 -6.722656 0.863281 -7.128906 1.09375 -7.484375 C 1.332031 -7.847656 1.664062 -8.125 2.09375 -8.3125 C 2.519531 -8.507812 3.007812 -8.609375 3.5625 -8.609375 C 4.363281 -8.609375 5.015625 -8.410156 5.515625 -8.015625 C 6.023438 -7.617188 6.3125 -7.09375 6.375 -6.4375 L 5.15625 -6.4375 C 5.113281 -6.757812 4.941406 -7.039062 4.640625 -7.28125 C 4.347656 -7.53125 3.953125 -7.65625 3.453125 -7.65625 C 2.992188 -7.65625 2.613281 -7.535156 2.3125 -7.296875 C 2.019531 -7.054688 1.875 -6.722656 1.875 -6.296875 C 1.875 -5.984375 1.960938 -5.726562 2.140625 -5.53125 C 2.316406 -5.34375 2.53125 -5.195312 2.78125 -5.09375 C 3.039062 -4.988281 3.40625 -4.875 3.875 -4.75 C 4.425781 -4.59375 4.875 -4.4375 5.21875 -4.28125 C 5.5625 -4.132812 5.851562 -3.90625 6.09375 -3.59375 C 6.34375 -3.28125 6.46875 -2.851562 6.46875 -2.3125 C 6.46875 -1.90625 6.359375 -1.515625 6.140625 -1.140625 C 5.921875 -0.773438 5.59375 -0.476562 5.15625 -0.25 C 4.726562 -0.03125 4.222656 0.078125 3.640625 0.078125 Z M 3.640625 0.078125 "/></g></g></g></svg>